<?xml version="1.0" encoding="UTF-8"?>
<svg version="1.1" xmlns="http://www.w3.org/2000/svg" width="2000" height="1500">
<path d="M0 0 C660 0 1320 0 2000 0 C2000 495 2000 990 2000 1500 C1340 1500 680 1500 0 1500 C0 1005 0 510 0 0 Z " fill="#4A90E2" transform="translate(0,0)"/>
<path d="M0 0 C1.1702623 -0.00101212 1.1702623 -0.00101212 2.36416626 -0.00204468 C20.81774095 0.02328186 37.90481063 1.8968287 55.3125 8.25 C56.51777344 8.68054688 57.72304688 9.11109375 58.96484375 9.5546875 C99.93555137 25.03348206 131.88742626 55.60739449 150.17382812 95.25219727 C168.05643761 135.45367897 167.40336224 180.26656348 152.36328125 221.14453125 C147.37209312 234.02017147 140.32583979 246.03580102 132.3125 257.25 C134.48029311 262.09309854 137.99359226 265.33711009 141.6875 269.0625 C142.36039063 269.76826172 143.03328125 270.47402344 143.7265625 271.20117188 C144.70882812 272.19407227 144.70882812 272.19407227 145.7109375 273.20703125 C146.30567871 273.81522705 146.90041992 274.42342285 147.51318359 275.05004883 C149.22712622 276.45527034 149.22712622 276.45527034 151.28759766 276.12768555 C153.58984266 275.12978697 155.33175712 273.77791361 157.3125 272.25 C167.9126374 282.75642643 178.50111063 293.27450082 189.07604408 303.80629539 C193.98715874 308.69684173 198.90192945 313.58360225 203.82568359 318.46142578 C208.58111312 323.17251618 213.32582666 327.8941602 218.06431198 332.62230301 C219.87001819 334.42064257 221.67923011 336.21546942 223.49205399 338.00663376 C226.0388606 340.52422603 228.57269216 343.05424394 231.10400391 345.58740234 C231.84919281 346.31821014 232.59438171 347.04901794 233.3621521 347.80197144 C242.36274455 356.87344696 246.60370566 364.75304804 246.5546875 377.53759766 C246.3777829 386.67250893 243.71746469 391.62867491 237.50390625 398.265625 C231.24233587 403.93563882 224.44509262 405.40457145 216.1875 405.625 C214.94742187 405.67398437 213.70734375 405.72296875 212.4296875 405.7734375 C202.90318419 405.17078638 195.79540801 398.45233334 189.46630859 391.97143555 C188.6455484 391.15140549 187.82478821 390.33137543 186.97915649 389.48649597 C184.29437887 386.79826093 181.62770645 384.09280931 178.9609375 381.38671875 C177.09301586 379.50946251 175.22413053 377.63321791 173.35391235 375.758255 C168.95253394 371.34140651 164.56404496 366.91198274 160.18017161 362.47776681 C155.18398559 357.42547312 150.17340074 352.38756237 145.16162372 347.35074174 C134.86261705 336.99963206 124.58158587 326.63079309 114.3125 316.25 C115.73041563 313.31553114 117.29582607 310.81667591 119.3125 308.25 C118.72823242 307.99025391 118.14396484 307.73050781 117.54199219 307.46289062 C115.15688836 306.165344 113.56059363 304.75658878 111.640625 302.84375 C110.97675781 302.18246094 110.31289063 301.52117187 109.62890625 300.83984375 C108.94699219 300.15019531 108.26507812 299.46054688 107.5625 298.75 C106.51642578 297.71552734 106.51642578 297.71552734 105.44921875 296.66015625 C104.79050781 295.99886719 104.13179687 295.33757812 103.453125 294.65625 C102.85016602 294.05103516 102.24720703 293.44582031 101.62597656 292.82226562 C100.3125 291.25 100.3125 291.25 100.3125 289.25 C99.42691406 289.86746094 98.54132813 290.48492188 97.62890625 291.12109375 C82.36734053 301.61916311 66.86343453 309.3322125 49.3125 315.25 C48.38050781 315.57742188 47.44851563 315.90484375 46.48828125 316.2421875 C33.32923322 320.57640706 19.74967378 321.73286902 5.9909668 321.58618164 C3.61537997 321.56240371 1.24091201 321.56567939 -1.13476562 321.57226562 C-10.47586759 321.55534159 -19.46876404 320.89968445 -28.6875 319.25 C-29.46472412 319.114729 -30.24194824 318.97945801 -31.04272461 318.84008789 C-70.82085176 311.40174575 -107.23739936 286.03297181 -130.24511719 253.1105957 C-139.21145146 239.80404867 -146.36723435 225.48602749 -151.09960938 210.15087891 C-151.65115369 208.36752176 -152.23842894 206.59532643 -152.828125 204.82421875 C-164.67977638 167.19080336 -159.7639098 123.29967578 -142.2109375 88.16015625 C-121.88925551 49.19319134 -87.52142126 19.73632034 -45.59765625 6.37890625 C-30.36158745 1.86379407 -15.88912743 0.01230567 0 0 Z " fill="#FEFEFE" transform="translate(642.6875,833.75)"/>
<path d="M0 0 C3.12783104 1.04663882 4.59234502 2.37432166 6.91053772 4.71156311 C7.72843781 5.52653763 8.54633789 6.34151215 9.38902283 7.18118286 C10.25995575 8.06962387 11.13088867 8.95806488 12.0282135 9.87342834 C12.93677094 10.7852739 13.84532837 11.69711945 14.78141785 12.63659668 C16.70557637 14.56839047 18.62310145 16.50644594 20.53553772 18.44984436 C22.96670133 20.92033115 25.40828048 23.38015985 27.85430717 25.83592319 C30.20744336 28.19912923 32.5554664 30.56736738 34.9032135 32.93592834 C35.77009796 33.81019974 36.63698242 34.68447113 37.53013611 35.5852356 C38.35434052 36.42227524 39.17854492 37.25931488 40.02772522 38.12171936 C41.10097549 39.20973595 41.10097549 39.20973595 42.19590759 40.31973267 C44.1741368 42.41913717 46.06988102 44.55187033 47.95587158 46.7328186 C51.30708371 50.5842834 54.82236399 54.2164539 58.45179749 57.80458069 C59.09655533 58.44627197 59.74131317 59.08796326 60.40560913 59.74909973 C61.78982911 61.12622675 63.17517819 62.50221965 64.56156731 63.87716293 C66.75342833 66.05149784 68.94160967 68.22947521 71.1288147 70.40849304 C77.34223368 76.59756025 83.56142377 82.78080529 89.7848053 88.95985413 C93.60309971 92.7514521 97.4165787 96.54783747 101.22708321 100.34726334 C102.67934271 101.79330068 104.13349859 103.237436 105.58955193 104.67965317 C107.61455966 106.68556314 109.63344177 108.6974485 111.65101624 110.71083069 C112.25716766 111.30822052 112.86331909 111.90561035 113.48783875 112.52110291 C117.598526 116.64162298 117.598526 116.64162298 117.598526 118.86952209 C118.258526 118.86952209 118.918526 118.86952209 119.598526 118.86952209 C119.59067078 117.19225037 119.59067078 117.19225037 119.58265686 115.48109436 C119.46694203 88.25301118 119.83178263 61.08891171 120.598526 33.86952209 C137.098526 33.86952209 153.598526 33.86952209 170.598526 33.86952209 C170.69250446 49.96920735 170.5368572 66.03693344 170.161026 82.13124084 C170.13905151 83.07394962 170.11707703 84.0166584 170.09443665 84.98793411 C169.93346295 91.84440305 169.76645265 98.70072049 169.598526 105.55702209 C169.50168853 109.51859903 169.40532788 113.48018711 169.3094635 117.44178772 C169.28596801 118.40894777 169.26247252 119.37610783 169.23826504 120.37257576 C169.06012942 127.78848722 168.90852339 135.20476938 168.76521397 142.62142754 C168.66287727 147.64036089 168.49287474 152.64993577 168.27015686 157.66493225 C168.20095657 159.80213052 168.13199887 161.93933666 168.06336975 164.07655334 C168.00379089 164.97613266 167.94421204 165.87571198 167.88282776 166.80255127 C167.73578 173.13229959 169.8731428 176.28141296 174.11012268 180.89715576 C176.72038119 183.40745742 179.43979499 185.70001823 182.33509827 187.87342834 C184.3741774 189.67167136 186.03360954 191.4823858 187.7956543 193.5438385 C191.28090387 197.55429753 194.93639775 201.33655913 198.707901 205.07655334 C199.38042908 205.74762115 200.05295715 206.41868896 200.74586487 207.11009216 C202.19225384 208.55270439 203.63979581 209.99416139 205.08839417 211.43455505 C207.38683353 213.72011496 209.68203309 216.00888538 211.97645569 218.29847717 C216.84766777 223.15831671 221.72280005 228.01421174 226.598526 232.86952209 C232.25293626 238.50025626 237.90568635 244.13263645 243.55421448 249.76927185 C245.80488399 252.01350489 248.05856631 254.25468132 250.31239319 256.4957428 C251.7047952 257.88450903 253.09705518 259.27341769 254.489151 260.66249084 C255.10753845 261.27571198 255.7259259 261.88893311 256.36305237 262.52073669 C260.09893672 266.25617353 263.63310228 270.11737782 267.07824802 274.12284088 C269.03589237 276.37202205 271.10385653 278.4879524 273.21961975 280.58827209 C274.40394592 281.76776428 274.40394592 281.76776428 275.61219788 282.97108459 C276.41206116 283.76256897 277.21192444 284.55405334 278.036026 285.36952209 C278.86295959 286.19194397 279.68989319 287.01436584 280.54188538 287.86170959 C282.55847559 289.86664322 284.57737836 291.86918463 286.598526 293.86952209 C285.17950938 297.09697733 283.46996835 299.24210316 280.97499084 301.72010803 C280.23437408 302.46057373 279.49375732 303.20103943 278.73069763 303.96394348 C277.93169037 304.75262817 277.13268311 305.54131287 276.3094635 306.35389709 C275.49103973 307.16949097 274.67261597 307.98508484 273.82939148 308.82539368 C271.21542627 311.42816772 268.59459095 314.02389972 265.973526 316.61952209 C264.19963146 318.38338549 262.42618834 320.147703 260.6532135 321.91249084 C256.30687458 326.23678346 251.95487519 330.5553154 247.598526 334.86952209 C242.7357215 330.74598106 238.09205331 326.51813998 233.598526 321.99452209 C233.021026 321.42088928 232.443526 320.84725647 231.848526 320.25624084 C228.91051383 317.31167061 226.0895468 314.31369195 223.38563538 311.15223694 C219.60616305 306.81483005 215.59525087 302.75576895 211.504776 298.71327209 C210.37924316 297.59341919 210.37924316 297.59341919 209.23097229 296.45094299 C206.8559268 294.08800185 204.47765783 291.72834839 202.098526 289.36952209 C198.96013383 286.25791563 195.82519855 283.14288455 192.692276 280.02577209 C191.63103516 278.97697876 191.63103516 278.97697876 190.5483551 277.90699768 C186.6481523 274.02580781 182.96610932 270.03495674 179.37330627 265.86915588 C176.23556304 262.33388028 172.86566411 259.03473967 169.504776 255.71327209 C168.75442078 254.96670349 168.00406555 254.22013489 167.23097229 253.45094299 C164.8559268 251.08800185 162.47765783 248.72834839 160.098526 246.36952209 C156.96013383 243.25791563 153.82519855 240.14288455 150.692276 237.02577209 C149.63103516 235.97697876 149.63103516 235.97697876 148.5483551 234.90699768 C144.64379637 231.02147312 140.95669245 227.02626073 137.35987854 222.85572815 C134.29601975 219.40073845 131.00745543 216.17620478 127.723526 212.93202209 C126.99536682 212.20764954 126.26720764 211.48327698 125.51698303 210.73695374 C123.21326954 208.44533906 120.90633126 206.15701557 118.598526 203.86952209 C115.55387821 200.85167129 112.51269633 197.83038793 109.473526 194.80702209 C108.78790588 194.12970032 108.10228577 193.45237854 107.39588928 192.75453186 C104.18096681 189.55575884 101.07464507 186.31817361 98.11219788 182.88319397 C94.43667842 178.62351002 90.5049584 174.66653554 86.504776 170.71327209 C85.75442078 169.96670349 85.00406555 169.22013489 84.23097229 168.45094299 C81.8559268 166.08800185 79.47765783 163.72834839 77.098526 161.36952209 C73.96013383 158.25791563 70.82519855 155.14288455 67.692276 152.02577209 C66.63103516 150.97697876 66.63103516 150.97697876 65.5483551 149.90699768 C61.6481523 146.02580781 57.96610932 142.03495674 54.37330627 137.86915588 C51.23556304 134.33388028 47.86566411 131.03473967 44.504776 127.71327209 C43.75442078 126.96670349 43.00406555 126.22013489 42.23097229 125.45094299 C39.8559268 123.08800185 37.47765783 120.72834839 35.098526 118.36952209 C31.96013383 115.25791563 28.82519855 112.14288455 25.692276 109.02577209 C24.9847821 108.32657654 24.27728821 107.62738098 23.5483551 106.90699768 C19.59005014 102.9679889 15.81816993 98.93237517 12.18969727 94.68678284 C9.49130076 91.60497126 6.57786509 88.74282627 3.661026 85.86952209 C3.07256897 85.28557678 2.48411194 84.70163147 1.87782288 84.09999084 C0.45372807 82.68747404 -0.97352649 81.27814399 -2.401474 79.86952209 C-9.3613987 85.62066748 -15.59966405 92.0113548 -21.93077087 98.43788147 C-22.77575134 99.29059631 -23.62073181 100.14331116 -24.49131775 101.02186584 C-25.24276062 101.78491028 -25.99420349 102.54795471 -26.76841736 103.3341217 C-28.8455306 105.33419783 -30.94650968 107.22005619 -33.13023376 109.09828186 C-37.85744467 113.2032634 -42.24886231 117.60922616 -46.651474 122.05702209 C-47.50902283 122.91835754 -48.36657166 123.77969299 -49.25010681 124.66712952 C-51.96968289 127.3988333 -54.685986 130.13375485 -57.401474 132.86952209 C-60.98185425 136.47664061 -64.56562581 140.08034011 -68.151474 143.68202209 C-69.36432068 144.90731628 -69.36432068 144.90731628 -70.60166931 146.15736389 C-74.73396885 150.30728976 -78.94832509 154.26065889 -83.38658142 158.07948303 C-87.23287774 161.4965489 -90.81516619 165.18255478 -94.432724 168.83827209 C-95.26807678 169.6774115 -96.10342957 170.5165509 -96.96409607 171.38111877 C-99.61234486 174.04149109 -102.25731806 176.70508222 -104.901474 179.36952209 C-108.38810001 182.88289483 -111.87812326 186.3928418 -115.370224 189.90077209 C-116.15691467 190.69576111 -116.94360535 191.49075012 -117.75413513 192.30982971 C-121.83281732 196.40637124 -125.99891666 200.30126714 -130.37889099 204.0717926 C-134.22712806 207.49221552 -137.81256472 211.17992587 -141.432724 214.83827209 C-142.26807678 215.6774115 -143.10342957 216.5165509 -143.96409607 217.38111877 C-146.61234486 220.04149109 -149.25731806 222.70508222 -151.901474 225.36952209 C-155.38810001 228.88289483 -158.87812326 232.3928418 -162.370224 235.90077209 C-163.15691467 236.69576111 -163.94360535 237.49075012 -164.75413513 238.30982971 C-168.20718576 241.77800023 -171.67721369 245.16313586 -175.38780212 248.35585022 C-180.04070365 252.36140652 -184.33432774 256.69556873 -188.651474 261.05702209 C-189.93779724 262.34902527 -189.93779724 262.34902527 -191.25010681 263.66712952 C-193.96968289 266.3988333 -196.685986 269.13375485 -199.401474 271.86952209 C-202.98185425 275.47664061 -206.56562581 279.08034011 -210.151474 282.68202209 C-210.96003845 283.49888489 -211.76860291 284.31574768 -212.60166931 285.15736389 C-216.74139025 289.31474282 -220.96256103 293.27850924 -225.40904236 297.10417175 C-229.11338919 300.38632699 -232.57140036 303.91767704 -236.057724 307.42811584 C-237.23933105 308.61184532 -237.23933105 308.61184532 -238.44480896 309.81948853 C-240.93274502 312.31297222 -243.41716024 314.80992994 -245.901474 317.30702209 C-247.5991581 319.00972797 -249.29707258 320.71220417 -250.995224 322.41444397 C-255.1333068 326.56348622 -259.26851335 330.71537786 -263.401474 334.86952209 C-266.6447708 333.78842316 -267.10510118 333.27998686 -269.151474 330.72889709 C-272.70340645 326.5376168 -276.53308035 322.71476772 -280.463974 318.88514709 C-281.4235199 317.94475586 -281.4235199 317.94475586 -282.40245056 316.98536682 C-285.08481633 314.35664172 -287.76884995 311.73005878 -290.47129822 309.1219635 C-292.45939579 307.20012007 -294.43148601 305.26302592 -296.401474 303.32264709 C-297.0190155 302.73404907 -297.63655701 302.14545105 -298.27281189 301.53901672 C-299.963974 299.85877991 -299.963974 299.85877991 -302.401474 296.86952209 C-302.14120064 293.4073406 -300.60429903 291.70119314 -298.20201111 289.31361389 C-297.18976723 288.29686836 -297.18976723 288.29686836 -296.15707397 287.25958252 C-295.42174942 286.53660477 -294.68642487 285.81362701 -293.92881775 285.06874084 C-293.17234451 284.31414078 -292.41587128 283.55954071 -291.63647461 282.78207397 C-290.03176691 281.18409206 -288.42346387 279.58971376 -286.81187439 277.99867249 C-284.36596035 275.58366742 -281.93064328 273.15839133 -279.49717712 270.73085022 C-277.9333398 269.17619408 -276.36890506 267.62213861 -274.80381775 266.06874084 C-274.08266281 265.35183578 -273.36150787 264.63493073 -272.61849976 263.89630127 C-269.30295225 260.62646265 -265.95600799 257.44322281 -262.42710876 254.40394592 C-257.93139777 250.51980269 -253.76558939 246.34145418 -249.588974 242.11952209 C-248.77581726 241.30257874 -247.96266052 240.48563538 -247.12486267 239.64393616 C-244.54794103 237.05489539 -241.97429775 234.46263473 -239.401474 231.86952209 C-236.00860247 228.44989491 -232.61232742 225.03370061 -229.213974 221.61952209 C-228.4491571 220.84640686 -227.68434021 220.07329163 -226.89634705 219.27674866 C-223.49409578 215.85919379 -220.07059965 212.52994905 -216.41514587 209.38319397 C-211.84092381 205.44352979 -207.61466785 201.1899881 -203.370224 196.90077209 C-202.53487122 196.06163269 -201.69951843 195.22249329 -200.83885193 194.35792542 C-198.19060314 191.69755309 -195.54562994 189.03396197 -192.901474 186.36952209 C-189.41484799 182.85614936 -185.92482474 179.34620239 -182.432724 175.83827209 C-181.64603333 175.04328308 -180.85934265 174.24829407 -180.04881287 173.42921448 C-175.9657968 169.32832009 -171.79534634 165.42835679 -167.41062927 161.65382385 C-163.64255221 158.30744908 -160.13187467 154.70086359 -156.588974 151.11952209 C-155.77581726 150.30257874 -154.96266052 149.48563538 -154.12486267 148.64393616 C-151.54794103 146.05489539 -148.97429775 143.46263473 -146.401474 140.86952209 C-143.00860247 137.44989491 -139.61232742 134.03370061 -136.213974 130.61952209 C-135.4491571 129.84640686 -134.68434021 129.07329163 -133.89634705 128.27674866 C-129.86698305 124.22926026 -125.74475632 120.3876931 -121.4183197 116.66151428 C-117.64829183 113.3117982 -114.13447328 109.7034904 -110.588974 106.11952209 C-109.77581726 105.30257874 -108.96266052 104.48563538 -108.12486267 103.64393616 C-105.54794103 101.05489539 -102.97429775 98.46263473 -100.401474 95.86952209 C-97.00860247 92.44989491 -93.61232742 89.03370061 -90.213974 85.61952209 C-89.4491571 84.84640686 -88.68434021 84.07329163 -87.89634705 83.27674866 C-83.86698305 79.22926026 -79.74475632 75.3876931 -75.4183197 71.66151428 C-71.64829183 68.3117982 -68.13447328 64.7034904 -64.588974 61.11952209 C-63.77581726 60.30257874 -62.96266052 59.48563538 -62.12486267 58.64393616 C-59.54794103 56.05489539 -56.97429775 53.46263473 -54.401474 50.86952209 C-51.00860247 47.44989491 -47.61232742 44.03370061 -44.213974 40.61952209 C-43.4491571 39.84640686 -42.68434021 39.07329163 -41.89634705 38.27674866 C-37.81370867 34.17574625 -33.63514907 30.27979904 -29.2504425 26.504776 C-26.45986649 24.03675109 -23.89627255 21.37681654 -21.32725525 18.68202209 C-20.23750334 17.56020622 -19.14698717 16.43913233 -18.05577087 15.31874084 C-16.36974578 13.58300312 -14.68895092 11.8432401 -13.02037048 10.0907135 C-11.38627538 8.37817235 -9.73391493 6.68520555 -8.07725525 4.99452209 C-7.58131363 4.46447571 -7.08537201 3.93442932 -6.57440186 3.38832092 C-3.047851 -0.16559714 -3.047851 -0.16559714 0 0 Z " fill="#FEFEFE" transform="translate(1016.4014739990234,261.13047790527344)"/>
<path d="M0 0 C19.00560991 16.73017513 32.76224449 36.65316567 38.70068359 61.49707031 C38.99845703 62.51027344 39.29623047 63.52347656 39.60302734 64.56738281 C47.09883635 92.6853023 40.52186239 123.855334 26.88818359 148.93457031 C9.5325084 177.56633977 -17.0285258 196.92937266 -49.45556641 205.03613281 C-77.92496854 211.63014875 -109.75287429 206.62811978 -134.69604492 191.32446289 C-164.26444411 172.50307832 -181.31954015 146.60742606 -190.17822266 113.18066406 C-196.10091353 82.73886131 -189.29385784 50.19820707 -172.29931641 24.49707031 C-169.53918849 20.61995655 -166.47365314 17.03980203 -163.29931641 13.49707031 C-162.27761762 12.2477776 -161.25668746 10.99785556 -160.23681641 9.74707031 C-120.39927164 -35.92035905 -45.23798811 -38.61215346 0 0 Z " fill="#4A90E2" transform="translate(720.29931640625,904.5029296875)"/>
<path d="M0 0 C17.49 0 34.98 0 53 0 C53 40.26 53 80.52 53 122 C116.03 122 179.06 122 244 122 C244 81.74 244 41.48 244 0 C261.82 0 279.64 0 298 0 C298 98.34 298 196.68 298 298 C280.18 298 262.36 298 244 298 C244 257.74 244 217.48 244 176 C180.97 176 117.94 176 53 176 C53 216.26 53 256.52 53 298 C35.51 298 18.02 298 0 298 C0 199.66 0 101.32 0 0 Z " fill="#FEFEFE" transform="translate(882,789)"/>
<path d="M0 0 C1.02772349 -0.00256327 2.05544698 -0.00512655 3.1143136 -0.0077675 C6.54451031 -0.01269344 9.97426305 0.00376829 13.40441895 0.02018738 C15.86862172 0.0210339 18.33282525 0.02055801 20.79702759 0.01885986 C26.09534878 0.01817757 31.39353281 0.02666498 36.69181824 0.04357338 C44.35212899 0.06800373 52.01238621 0.07577276 59.6727317 0.07953735 C72.1025303 0.08609552 84.53226967 0.10603942 96.96203613 0.13444519 C109.03299667 0.16200221 121.1039411 0.18322774 133.17492676 0.19596863 C133.91957386 0.1967568 134.66422097 0.19754497 135.43143314 0.19835702 C139.16728578 0.20227227 142.90313853 0.20606336 146.63899136 0.20979273 C177.60837838 0.24086889 208.57765664 0.29616127 239.54699707 0.36076355 C239.54699707 18.18076355 239.54699707 36.00076355 239.54699707 54.36076355 C167.93699707 54.36076355 96.32699707 54.36076355 22.54699707 54.36076355 C22.54699707 134.88076355 22.54699707 215.40076355 22.54699707 298.36076355 C4.72699707 298.36076355 -13.09300293 298.36076355 -31.45300293 298.36076355 C-31.58536692 263.27683913 -31.69611649 228.19315775 -31.75939491 193.10905863 C-31.76689882 188.96363041 -31.77466478 184.81820271 -31.78259277 180.67277527 C-31.78416664 179.8475227 -31.7857405 179.02227014 -31.78736205 178.17200992 C-31.81344392 164.8234237 -31.86073695 151.4749931 -31.91591971 138.12649909 C-31.97210153 124.42166046 -32.00537096 110.71690313 -32.0175339 97.01195407 C-32.02575164 88.56055226 -32.0516715 80.10959037 -32.10050173 71.65832403 C-32.13230742 65.85675018 -32.14178331 60.05540254 -32.13401119 54.25374791 C-32.13018171 50.91009967 -32.13921511 47.56783372 -32.16823578 44.22421837 C-32.39236652 17.06309436 -32.39236652 17.06309436 -23.66269493 7.37361526 C-17.02900292 0.7790227 -8.89273656 -0.0818481 0 0 Z " fill="#FEFEFE" transform="translate(1274.4530029296875,788.6392364501953)"/>
<path d="M0 0 C34.65 0 69.3 0 105 0 C105.33283383 41.82611737 104.59562579 83.56833949 103.5 125.375 C103.47311828 126.40185465 103.47311828 126.40185465 103.44569349 127.44945383 C102.97810024 145.30003828 102.49112256 163.15003361 102 181 C67.02 181 32.04 181 -4 181 C-4 132.22788292 -4 132.22788292 -3.28515625 113.97167969 C-2.9032168 103.96583715 -2.70902661 93.95600126 -2.5 83.9453125 C-2.45846771 81.98923634 -2.4168823 80.03316131 -2.37524414 78.0770874 C-2.20527721 70.05520115 -2.03888439 62.03324319 -1.875 54.01123047 C-1.77290718 49.02284548 -1.66755156 44.03453749 -1.56030273 39.04626083 C-1.52079237 37.17831885 -1.48249871 35.31035065 -1.44555664 33.44235611 C-1.39383828 30.82884751 -1.33793936 28.21545569 -1.28125 25.60205078 C-1.26094727 24.49668472 -1.26094727 24.49668472 -1.24023438 23.36898804 C-1.06220976 15.55109695 -0.48924765 7.82796248 0 0 Z " fill="#FEFEFE" transform="translate(959,470)"/>
<path d="M0 0 C56.43 0 112.86 0 171 0 C171 17.82 171 35.64 171 54 C114.57 54 58.14 54 0 54 C0 36.18 0 18.36 0 0 Z " fill="#FEFEFE" transform="translate(1319,911)"/>
<path d="M0 0 C4.41130944 2.62859469 7.61794774 5.76102527 9.6875 10.5 C10.9021158 16.9998359 10.74098022 22.68773395 7.0625 28.3125 C5.96918789 29.73329003 4.84422028 31.13033804 3.6875 32.5 C-3.73676143 41.54376944 -7.13939145 50.06034463 -6.76171875 61.9375 C-5.56650872 71.41603523 -1.49937194 79.3443047 4.6875 86.5 C9.38110818 92.20844238 10.10210566 96.09326448 10.03125 103.41796875 C9.5143687 108.05227946 7.82905954 111.10482497 4.6875 114.5 C-0.62647103 118.6448974 -4.98725491 120.00629962 -11.62890625 119.890625 C-19.76381528 118.70650433 -25.31952517 111.91763103 -30.109375 105.74609375 C-42.75108828 87.11973961 -48.10493363 65.30185532 -44.25 43 C-40.54549178 26.58937482 -32.33016331 11.41186483 -19.3125 0.5 C-13.6642413 -3.03016169 -5.98468524 -2.60604791 0 0 Z " fill="#FDFEFE" transform="translate(612.3125,935.5)"/>
</svg>
